<svg width="50" height="47" viewBox="0 0 50 47" fill="none" xmlns="http://www.w3.org/2000/svg">
<path d="M30.6673 45.6546C30.6673 45.2874 30.8117 44.9912 30.8117 44.6468C30.8117 44.2166 30.6398 43.9044 30.5388 43.5036C30.4021 42.9607 30.2338 42.3338 30.2338 41.7668C30.2338 41.2232 30.5228 40.7254 30.5228 40.1894C30.5228 39.4041 30.6491 38.5324 30.4666 37.7676C30.2585 36.8954 29.9032 35.9337 29.4392 35.2023C29.3558 35.0708 29.1025 34.8325 29.1543 34.6526C29.2151 34.4413 29.891 34.4694 30.0733 34.4694C30.3675 34.4694 30.5852 34.326 30.888 34.326C31.3575 34.326 31.7688 34.0545 32.2405 34.0392C33.0103 34.0141 33.9903 33.6607 34.6725 33.3222C35.0708 33.1245 35.4436 32.9891 35.7922 32.7008C36.123 32.4272 36.5659 32.1077 36.7915 31.7288C37.3949 30.7153 38.5259 30.0996 38.8704 28.8927C39.2107 27.7005 39.1914 26.564 39.1914 25.3236C39.1914 24.7936 39.1728 24.2412 39.3199 23.7303C39.4933 23.1279 39.4804 22.5501 39.4804 21.9219C39.4804 21.3876 39.1471 20.8367 38.8985 20.3843C38.6847 19.9953 38.3878 19.5388 38.0758 19.2291C37.9121 19.0667 37.8684 18.8096 37.6905 18.6396C37.4785 18.437 37.3925 18.3169 37.2731 18.0461C37.1577 17.7843 36.8798 17.5522 36.8798 17.2614C36.8798 16.9127 37.3169 16.9849 37.5259 16.7515C37.9102 16.3224 37.8911 15.4818 37.8911 14.9351C37.8911 14.4134 37.6022 13.9163 37.6022 13.3935C37.6022 12.8942 37.1688 12.4611 37.1688 11.9595C37.1688 11.6121 37.1865 11.1669 36.7353 11.1669C36.1339 11.1669 35.5684 11.2796 34.9855 11.3979C34.3683 11.5232 33.7542 11.6389 33.1555 11.7962C32.6133 11.9387 32.2019 12.2744 31.8231 12.6726C31.6839 12.8188 31.6196 12.9951 31.4298 13.1028C31.2848 13.185 31.1154 13.2229 30.9562 13.3019C30.3786 13.5886 30.0623 13.1398 29.5275 13.1028C29.3202 13.0884 29.1383 12.9594 28.9335 12.9594C28.7138 12.9594 28.5506 12.939 28.3396 12.8717C27.8981 12.7309 27.4042 12.7696 26.947 12.7403C26.5878 12.7173 26.2239 12.6078 25.8674 12.6009C25.0705 12.5854 24.2924 12.5292 23.4915 12.5292C22.836 12.5292 22.1826 12.4965 21.5612 12.7124C20.9358 12.9296 20.1642 12.9989 19.5104 13.1028C18.9681 13.1889 18.1405 13.647 17.7325 13.1745C17.2328 12.5958 16.5942 12.372 15.9065 12.099C15.5152 11.9436 15.0926 11.9039 14.7025 11.7564C14.511 11.684 14.2725 11.8061 14.0884 11.7046C13.7586 11.5228 13.2387 11.5254 12.8604 11.5254C12.3111 11.5254 12.4202 12.0029 12.2825 12.3858C12.2084 12.5917 12.1741 12.7588 12.1741 12.9753C12.1741 13.2472 12.0296 13.4837 12.0296 13.752C12.0296 14.4142 11.932 15.1459 12.2102 15.7596C12.3487 16.0651 12.6521 16.7086 12.6035 17.0463C12.5716 17.2681 12.2677 17.2974 12.1019 17.3888C11.9376 17.4794 11.9505 17.7253 11.849 17.8708C11.7465 18.0178 11.6427 18.2568 11.5801 18.4245C11.5283 18.5634 11.3776 18.9973 11.2631 19.0857C11.0636 19.2397 11.0133 19.271 10.8899 19.5159C10.7688 19.7562 10.7038 20.0515 10.625 20.3086C10.5737 20.476 10.5958 20.6395 10.5808 20.8105C10.5628 21.017 10.438 21.1904 10.3842 21.3881C10.2846 21.7539 10.2959 22.1161 10.2959 22.4915C10.2959 23.1116 10.2771 23.7128 10.4002 24.3238C10.541 25.0226 10.3947 25.7689 10.3681 26.4549C10.3404 27.1713 10.3704 27.8697 10.4966 28.574C10.5623 28.9411 10.5081 29.3281 10.6972 29.6694C10.856 29.956 11.047 30.2066 11.2511 30.4542C11.4448 30.6892 11.7303 30.7642 11.9213 30.9959C12.1866 31.3178 12.3964 31.6467 12.6958 31.9439C13.108 32.353 13.5516 32.7527 14.0363 33.0672C14.2236 33.1888 14.5125 33.2846 14.7426 33.3261C15.1502 33.3997 15.5373 33.649 15.9305 33.7683C16.6401 33.9835 17.3427 34.4485 18.0977 34.4694C18.6103 34.4835 19.1129 34.8002 19.6147 34.8279C19.7801 34.837 19.3699 35.0261 19.5425 35.0261C19.6923 35.0261 19.7233 35.2298 19.6227 35.2939C19.4895 35.3789 19.5425 35.6205 19.5425 35.76C19.5425 36.0177 19.4935 36.1592 19.402 36.4013C19.2903 36.6969 19.054 37.911 18.6355 37.911C18.3786 37.911 18.1218 37.911 17.8649 37.911C17.5859 37.911 17.4143 37.7997 17.1586 37.7715C16.8387 37.7363 16.534 37.6378 16.2195 37.5684C15.9376 37.5062 15.6299 37.5432 15.3526 37.4449C15.1483 37.3725 14.919 37.3374 14.7025 37.3374C14.4263 37.3374 14.2354 37.2261 13.9801 37.1979C13.707 37.1678 13.6109 37.1255 13.4022 36.939C13.3069 36.8539 13.2004 36.7883 13.1132 36.6921C13.0165 36.5854 13.0515 36.4414 12.9607 36.3256C12.8284 36.1567 12.7798 35.9806 12.6758 35.7998C12.6042 35.6754 12.4606 35.5882 12.4069 35.4572C12.2658 35.1135 11.8989 35.0026 11.7407 34.6884C11.4776 34.1663 10.7105 34.0053 10.312 33.6249C10.0015 33.3286 9.44342 33.5042 9.12402 33.2664C8.83774 33.0533 7.57386 32.9098 7.55082 33.4815C7.53802 33.7992 7.33219 34.2822 7.55082 34.5968C7.78069 34.9277 8.0743 34.9339 8.35348 35.1187C8.6661 35.3255 8.98161 35.5207 9.28456 35.744C10.0807 36.331 10.3711 37.1672 10.6009 38.0544C10.8631 39.0665 11.9357 39.7594 12.6637 40.4045C12.8667 40.5844 13.0778 40.8559 13.3299 40.9542C13.6772 41.0896 14.0516 41.1391 14.3975 41.2809C14.9588 41.511 15.5989 41.7111 16.2195 41.7111C16.7021 41.7111 17.1857 41.7742 17.6482 41.9102C18.0884 42.0397 18.3635 41.7505 18.3867 42.3723C18.3987 42.6955 18.3867 42.3723 18.784 43.5036C18.784 43.8821 18.784 43.9556 18.784 44.1917C18.784 44.5066 19.0314 44.8627 18.9084 45.1527C18.8402 45.3133 18.9853 45.5658 18.784 45.6546C18.6396 45.7183 18.5771 45.8592 18.3867 45.8697C17.713 45.9068 16.9933 45.929 16.3238 45.8657C15.5669 45.7941 14.6042 45.4209 13.9761 45.0053C13.0738 44.4083 12.1737 43.8581 11.3875 43.1132C10.727 42.4875 9.80196 42.0213 9.28857 41.257C8.97056 40.7835 8.61342 40.3084 8.30933 39.8389C7.80998 39.0679 7.27801 38.4668 6.76021 37.6959C6.35222 37.0885 6.02281 36.5977 5.46392 36.0826C5.26683 35.901 5.11875 35.6351 4.87798 35.4891C4.74554 35.4088 4.65509 35.1182 4.53284 34.9872C4.30486 34.7428 4.19858 34.274 4.08336 33.9595C3.75897 33.0741 3.44288 32.2397 3.19241 31.3146C2.93031 30.3465 2.40311 29.5267 2.17304 28.5302C2.05797 28.0318 1.9149 27.5499 1.77171 27.0604C1.58123 26.4091 1.57364 26.3129 1.47072 25.6416C1.42695 25.3561 1.34236 25.1554 1.33056 24.9446C1.27752 23.9977 1.31385 23.2881 1.28125 23.0509C1.3862 22.4915 1.32927 23.3331 1.32935 22.5774C1.37444 22.4767 1.44994 21.6479 1.47072 21.5407C1.5348 21.2099 1.32167 20.522 1.47072 20.2409C1.60171 19.9939 1.59154 19.7648 1.64329 19.508C1.80974 18.6819 2.24888 18.002 2.58239 17.2454C3.11789 16.0306 3.78558 14.9186 4.35626 13.7242C4.58293 13.2498 5.01912 12.958 5.2472 12.5053C5.62542 11.7545 6.08337 11.1263 6.5756 10.4499C7.19189 9.6029 7.86252 8.79702 8.49795 7.96426C8.79715 7.57215 9.07613 7.15477 9.5093 6.90071C9.97753 6.62609 10.4552 6.41466 10.9621 6.21956C11.7323 5.92315 12.2484 5.53364 12.8604 4.9563C13.7832 3.82199 15.8023 4.12639 17.1345 3.77379C18.1101 3.51558 18.9129 2.88588 19.8555 2.53099C20.3213 2.35563 20.7792 2.0728 21.2923 2.06096C21.5982 2.0539 21.9053 2.06096 22.2113 2.06096C22.7082 2.06096 23.2408 2.12156 23.7323 2.04503C24.0873 1.98976 24.3772 1.91756 24.7437 1.91756C25.5477 1.91756 26.3517 1.91756 27.1557 1.91756C27.6338 1.91756 28.1493 1.86244 28.6125 1.98926C29.3005 2.17764 30.0185 2.37979 30.7194 2.52303C32.1238 2.81 33.4889 3.33127 34.821 3.87736C35.3089 4.0774 35.8918 4.43968 36.342 4.71386C36.9266 5.06988 37.2461 5.73145 37.7828 6.14388C38.1312 6.41159 38.4614 6.76581 38.8142 7.00826C39.2693 7.32097 39.8563 7.43864 40.3553 7.66153C40.9 7.90484 41.4618 8.08774 41.9927 8.33869C42.356 8.51039 42.7916 9.10795 42.988 9.44208C43.1254 9.67585 43.2117 9.67164 43.4214 9.78066C43.6833 9.91682 43.6763 10.1662 43.7425 10.418C43.9098 11.0545 44.2459 11.6677 44.4488 12.2981C44.744 13.2153 44.9275 14.1245 45.4762 14.9112C45.6487 15.1585 45.9471 15.1217 45.9859 15.4689C46.0312 15.8731 46.3163 16.3291 46.4474 16.7196C46.5863 17.1331 46.8548 17.4739 47.1016 17.835C47.3583 18.2104 47.6247 18.6975 47.7317 19.1415C47.8006 19.4273 47.7778 19.9936 47.9163 20.217C48.0904 20.4978 47.8601 21.3108 47.8601 21.639C47.8601 22.126 47.9372 22.5847 48.0367 23.0611C48.0912 23.3222 48.1213 23.5901 48.1812 23.8498C48.1978 23.9218 48.3022 24.0669 48.2775 24.1446C48.2078 24.3635 48.1491 24.5606 48.1491 24.7978C48.1491 25.2471 48.0046 25.654 48.0046 26.1044C48.0046 26.8655 47.8601 27.5757 47.8601 28.335C47.8601 28.8635 47.9485 29.5378 47.7558 30.0399C47.5863 30.4815 47.363 30.9631 47.2782 31.4261C47.2383 31.6439 46.9793 31.8795 47.1056 32.0634C47.4088 32.5048 46.3427 34.0626 46.1264 34.4694C45.8014 35.0806 45.4183 35.6559 45.0588 36.2459C44.8304 36.6209 44.5611 36.977 44.3164 37.3413C44.0698 37.7085 44.0346 37.9076 43.6381 38.1579C43.1393 38.473 42.7597 39.0177 42.398 39.4565C42.1563 39.7498 41.935 39.9918 41.6155 40.2054C41.2974 40.4179 41.1695 40.7778 40.857 41.0299C40.2743 41.4998 39.4579 41.6101 38.8142 42.0457C38.3737 42.3438 37.8143 42.4531 37.4015 42.7866C37.113 43.0196 36.7429 43.1851 36.4745 43.4359C35.8265 44.0411 35.0307 44.588 34.3153 45.1128C33.8021 45.4894 32.9209 45.735 32.2966 45.794C31.5576 45.8638 30.8149 45.8697 30.0613 45.8697C29.7882 45.8697 29.8004 45.8358 29.8004 45.5829C29.8004 45.3678 29.8004 45.1527 29.8004 44.9376" stroke="white" stroke-width="2" stroke-linecap="round"/>
</svg>
