<svg width="500" height="651.386" viewBox="0 0 500 651.386" fill="none" xmlns="http://www.w3.org/2000/svg" version="1.1" xmlns:xlink="http://www.w3.org/1999/xlink"><path opacity="0.671" fill-rule="evenodd" clip-rule="evenodd" d="M481.721 0h3.483a58.209 58.209 0 0 0 5.804 12.948q-0.832 1.461 -2.322 2.49 2.247 3.424 5.804 5.975 -0.201 1.894 -1.161 3.984a250.533 250.533 0 0 1 4.644 20.917 60.768 60.768 0 0 0 -2.322 5.478 398.721 398.721 0 0 0 2.322 10.458 28.465 28.465 0 0 0 -2.902 4.482 98.081 98.081 0 0 1 -1.742 14.441 4442.431 4442.431 0 0 0 0 63.744l-2.321 5.977 2.321 5.975q-2.32 5.977 0 11.952a98.081 98.081 0 0 0 -5.804 13.447q2.099 2.421 -0.58 3.984a388.06 388.06 0 0 1 -6.965 28.884q-0.16 23.188 -0.58 45.318 1.407 0.461 2.321 1.495 -1.679 4.876 0 8.964 7.548 7.649 3.483 16.434l2.321 28.884a62.154 62.154 0 0 0 0 23.904l-2.321 11.952q0.687 17.445 4.643 35.358 0.552 1.714 2.322 2.49l-1.161 0.996q7.979 8.699 5.804 19.422 0.746 3.778 2.321 6.972v0.996a2750.533 2750.533 0 0 0 -2.321 21.414 12.687 12.687 0 0 1 1.161 4.981 221.748 221.748 0 0 1 -5.224 26.393q0.167 38.14 -1.161 76.693a53.092 53.092 0 0 0 -2.902 11.453q0.373 5.017 0.58 10.458 4.216 3.937 5.805 7.968l1.741 10.458a313.433 313.433 0 0 1 -11.608 41.334q0.873 3.748 0 6.972 1.428 2.407 4.643 1.991 0.412 4.072 -2.902 6.972 -0.536 -1.208 -1.741 -1.991 -2.839 2.088 -6.385 2.987 -5.452 -1.792 -11.027 0 -0.581 -1.991 -1.161 0 -7.937 -0.141 -15.671 -0.996 -1.16 3.985 -2.322 0a167.377 167.377 0 0 0 -14.51 4.98q-5.31 -1.846 -10.447 0h-1.161q-0.58 -1.991 -1.161 0 -3.193 -1.484 -5.804 0 -1.161 0 -1.16 0.997h-1.161q-2.214 -1.397 -5.224 -1.993 -1.793 0.502 -1.741 1.993h-1.161q0.228 -1.104 -0.58 -1.993h-4.644q-0.808 0.887 -0.58 1.993h-1.161q0.149 -1.488 -1.161 -2.49 -5.005 -2.371 -9.286 -0.498 -5.527 -2.712 -10.447 -3.984 -3.013 -2.109 -5.224 0.996 -2.322 -3.985 -4.643 0l-5.804 -2.988q-6.304 0.477 -13.93 0.997a22.068 22.068 0 0 0 -4.063 -1.993q-0.58 0.996 -1.16 1.993l-3.483 -1.993q-6.217 0.342 -12.769 0 -1.812 3.721 -2.902 0 -2.483 3.113 -5.804 0 -4.448 0.332 -8.706 0.996 -3.408 -0.882 -7.545 0l-2.322 -1.991q-3.176 1.102 -6.964 0.996 -3.07 -2.157 -6.965 -2.988 -4.236 1.184 -8.126 0.997l-8.126 -2.988q-15.082 1.487 -30.179 0 -1.646 0.604 -2.322 1.991 -2.361 -1.316 -5.224 -0.996 -2.322 -1.99 -4.643 0 -5.292 0.512 -9.867 -0.996a107.676 107.676 0 0 1 -6.384 2.988h-2.322q-0.58 -1.993 -1.161 0 -2.507 1.289 -4.643 0 -1.205 0.784 -1.741 1.991 -6.791 -0.301 -13.349 0 -2.322 -1.99 -4.644 0a156.716 156.716 0 0 1 -23.215 -0.996q-1.998 0.474 -2.902 1.991 -3.382 -3.308 -5.804 0 -5.343 -3.938 -7.545 0 -3.647 -3.119 -6.384 0 -3.049 -1.955 -5.224 0.997 -2.135 -1.29 -4.643 0 -0.58 -1.993 -1.161 0 -2.321 1.99 -4.643 0 -0.58 -1.993 -1.161 0 -8.717 2.924 -16.832 4.98 -1.286 -1.606 -3.482 -1.993 -2.002 1.381 -3.483 0 -2.277 3.572 -3.482 0l-1.161 1.993 -4.643 -1.993q-7.964 0.672 -15.671 0.997h-1.161q-0.581 -1.993 -1.16 0 -8.017 -1.062 -15.091 0 -4.147 -1.564 -8.126 0 -1.161 -1.993 -2.321 0 -3.062 0.908 -6.385 -0.997 -1.646 0.606 -2.321 1.993l-8.126 -2.988q-4.876 0.299 -11.027 0a37.846 37.846 0 0 1 -6.385 3.984q-1.283 -3.132 -4.062 -4.98c-1.503 -0.984 -0.149 -0.984 -1.742 -1.993 0 -0.332 2.902 0.498 0 -1.494 2.761 -1.188 2.18 -3.345 4.062 -5.478q1.375 -13.404 0 -27.39 4.164 -1.033 0 -2.988 3.691 -0.512 1.162 -2.49 1.701 -0.464 2.321 -1.991a128.998 128.998 0 0 1 -1.161 -19.92q1.795 -19.648 0 -40.837 2.295 -30.848 0 -66.731 0.912 -12.841 0 -24.9 2.156 -5.405 0 -10.956 3.55 -4.051 0 -7.47 2.781 -3.269 1.162 -6.474 0.959 -7.058 0 -14.939 -2.058 -5.537 0 -10.956 0.192 -0.922 1.16 -1.495a55.437 55.437 0 0 0 -2.322 -5.478q1.642 -2.243 -1.16 -3.984 2.897 -3.256 -1.162 -5.478 1.301 -3.128 1.162 -5.977a25.053 25.053 0 0 1 -3.483 -6.474q1.404 -6.29 0 -11.952 1.632 -4.683 -2.321 -8.466 4.643 -1.494 0 -2.987l2.321 -0.997A60.235 60.235 0 0 0 0 334.657v-0.996q2.322 -1.495 0 -2.988v-0.996q1.551 -1.136 2.322 -2.988 -0.819 -1.439 -2.322 0v-1.993a5.011 5.011 0 0 0 2.322 -1.494q-0.949 -2.926 -1.162 -5.478 0.902 -4.871 0 -8.965 1.014 -3.475 3.483 -7.469 -4.162 -1.033 0 -2.988l-1.161 -0.996a52.239 52.239 0 0 0 4.644 -5.479 24.627 24.627 0 0 1 -1.162 -8.964q-0.891 -10.839 0 -22.908 1.341 -9.195 0 -17.928 -1.794 -9.414 0 -19.92a78.465 78.465 0 0 1 1.162 -11.454q-3.505 -1.308 0 -3.984 -0.988 -9.313 0 -17.929l-2.322 -0.996q5.23 -4.893 3.482 -9.959 1.141 -3.872 3.483 -7.968a42.644 42.644 0 0 1 -1.161 -4.483q0.06 -3.038 0 -5.975 -0.406 -8.055 0 -15.438 3.134 -0.473 1.161 -1.991 3.832 -2.516 2.322 -5.977 3.134 -0.473 1.16 -1.991l2.322 -0.997a40.512 40.512 0 0 1 0 -6.971 34.648 34.648 0 0 1 -2.322 -4.482q0.352 -4.277 2.322 -8.965 -0.365 -2.232 -2.322 -3.486 4.41 -3.113 0 -5.975 1.649 -3.703 0 -6.972 -3.793 -0.661 -2.321 -2.988 -4.858 -5.705 -6.965 -12.45l2.321 -3.984q-2.32 -1.494 0 -2.987L6.965 72.708q3.125 -4.654 1.161 -8.964 0.928 -9.858 0 -21.414a57.569 57.569 0 0 0 2.321 -6.972q-3.038 -3.219 0 -7.47 -0.214 -0.906 -1.161 -0.996v-1.993q0.947 -0.09 1.162 -0.996a647.122 647.122 0 0 0 -3.483 -3.486l0.58 -1.494a41.578 41.578 0 0 1 7.546 -1.993q5.05 -0.192 9.866 0.997 2.6 -2.703 6.385 0 5.741 -0.647 10.447 -2.988 12.886 -2.655 24.376 -2.988 14.952 -2.191 27.858 -6.972 12.344 0.267 26.117 0 5.241 1.666 9.287 4.98l1.161 -0.996a108.742 108.742 0 0 1 8.706 2.988 4.371 4.371 0 0 0 1.741 -0.996q4.673 3.935 11.028 5.975 3.646 -1.088 6.384 1.993l1.161 -0.996a43.71 43.71 0 0 1 6.965 2.987q5.251 -0.022 10.447 0 0.58 -0.996 1.161 -1.991 4.341 3.586 8.125 0 0.581 0.996 1.161 1.991 1.16 -1.991 2.322 0 1.161 -3.983 2.321 0 0.581 -0.996 1.161 -1.991 4.795 2.352 8.126 -1.993l1.161 1.993a75.693 75.693 0 0 0 7.545 -3.984q0.104 0.811 1.161 0.996 3.59 -2.405 6.964 -1.993h2.322q8.92 0.564 17.412 0.997a10.661 10.661 0 0 1 2.902 -1.993 47.974 47.974 0 0 0 6.385 1.993q2.921 0.069 6.384 0.996 1.645 -0.606 2.322 -1.993 1.199 1.279 2.902 1.993 14.633 -0.391 27.858 0 5.066 -0.617 9.286 -2.988l9.287 0.996 4.643 -1.991q3.737 1.39 7.545 -0.996 1.162 3.984 2.322 0 5.642 0.156 10.447 3.984l1.161 -1.993 5.804 1.993q11.213 -1.086 22.635 -0.996 0.409 0.89 1.741 0.996a53.305 53.305 0 0 1 6.384 -2.988l5.804 1.991q11.908 -0.48 23.215 0a86.354 86.354 0 0 0 6.385 -1.991q1.769 1.695 2.322 -0.996a59.701 59.701 0 0 0 8.125 3.984l1.161 -0.996a86.354 86.354 0 0 0 6.384 1.991q7.303 -0.713 13.93 0 1.812 -3.723 2.902 0l4.643 -1.993q2.595 1.836 5.224 0 3.083 -0.213 6.965 0.997a289.979 289.979 0 0 1 23.215 -4.98q5.499 0.974 1.161 -2.49 1.254 -3.721 2.321 -7.47m8.126 61.753q-2.321 0.497 0 0.996 -0.773 2.409 -3.483 3.486 4.644 1.494 0 2.987 3.877 1.052 1.161 3.486 -2.321 0.499 0 0.996a169.51 169.51 0 0 0 0 16.933q-2.321 0.498 0 0.996 -0.071 3.518 0 6.972 -2.321 0.498 0 0.996 0.244 2.425 -2.321 3.486 2.138 2.226 0 4.482 -0.609 10.72 0 19.92 0.838 11.538 0 21.912v0.997q-2.322 0.498 0 0.996 -0.423 8.43 1.16 17.43 -3.909 3.627 -2.321 7.968 -2.107 1.553 -3.483 3.486 -2.32 0.498 0 0.996 1.959 1.722 0 2.988 0.049 3.111 -2.321 5.479 4.474 2.015 0 3.486 -2.043 2.749 0 5.478 -3.191 4.919 -2.322 9.959 -3.114 4.3 -3.482 8.467 -2.322 0.498 0 0.996 0.41 10.634 0 20.916 1.627 4.803 1.161 10.458 -0.359 2.786 -2.322 4.98 3.183 2.249 1.161 4.98l2.321 1.993q-1.171 5.48 0 11.453 1.578 3.134 4.644 6.972 -2.322 0.498 0 0.996 1.541 3.835 0 6.972 -2.322 0.498 0 0.996 2.281 5.045 0 8.965a116.951 116.951 0 0 1 0 29.88q-2.322 0.498 0 0.996 0.777 4.816 0 9.961 -0.205 4.396 0 9.959 -2.322 0.499 0 0.997 1.638 10.753 0 20.916 -2.322 0.498 0 0.996 2.138 2.256 0 4.482 2.618 1.998 3.482 4.981a35.821 35.821 0 0 0 -1.161 7.47q4.154 6.848 9.287 14.441 0.535 18.158 0 38.346a95.949 95.949 0 0 0 0 8.964 38.38 38.38 0 0 1 -1.742 4.98q-1.547 -2.072 -1.741 0.498 4.775 3.906 -1.161 6.474 0.215 0.906 1.161 0.996a5.181 5.181 0 0 1 -1.161 2.988q-2.321 0.498 0 0.996 2.406 2.651 -1.16 4.482 0.161 5.768 0 12.451 -2.322 0.498 0 0.996 2.32 1.493 0 2.988 -2.322 0.498 0 0.996v0.996q-2.322 0.498 0 0.996 0.675 3.774 0 7.968 1.733 13.717 0 25.897 1.894 7.292 0 13.943 -0.417 2.939 1.16 5.479 -3.726 3.086 -2.321 6.971a36.247 36.247 0 0 0 -2.322 4.483 721.748 721.748 0 0 0 0 10.955q0.874 5.336 4.643 9.961a3.625 3.625 0 0 1 -1.16 1.494q2.49 0.696 4.062 2.49 0.106 7.341 0.581 13.446 -1.318 2.26 -3.483 3.984 2.265 2.415 0 4.482 -1.804 2.825 0 5.479a34.755 34.755 0 0 0 -2.902 6.473q-2.9 -1.255 -0.58 1.495 -2.384 2.567 -3.482 5.478 -0.728 1.08 -2.322 1.494 1.616 0.58 2.322 1.993 -1.269 7.517 0 14.442a2155.65 2155.65 0 0 1 -34.824 1.494q-4.353 0.559 -8.125 2.49a4.371 4.371 0 0 1 -1.741 -0.997q-1.174 1.61 -3.483 1.993a537.313 537.313 0 0 0 -31.341 0 154.584 154.584 0 0 0 -31.34 -6.972q-0.977 0.78 -2.322 0.996a1136.461 1136.461 0 0 0 -39.466 -2.987q-10.226 -0.098 -19.733 0.996a908.316 908.316 0 0 1 -44.69 -5.977q-22.117 1.687 -44.69 0 -12.283 4.129 -25.537 4.981 -27.751 0.312 -53.396 -0.997a592.751 592.751 0 0 0 -31.921 6.474l-12.769 0.498a990.405 990.405 0 0 1 -48.753 -0.996 325.16 325.16 0 0 0 -9.866 1.991 186.567 186.567 0 0 0 -21.474 -2.987q-2.495 -5.522 1.16 -10.458 -1.987 -9.09 -0.58 -18.426a25.8 25.8 0 0 1 2.902 -10.457 3508.529 3508.529 0 0 1 0 -76.693l-2.321 -3.984 2.321 -17.928a4776.119 4776.119 0 0 1 -1.161 -61.254q3.758 -27.505 -1.16 -55.278 0.662 -3.449 1.16 -6.972 -3.134 -0.473 -1.16 -1.993a22.281 22.281 0 0 1 -2.902 -8.466l-1.162 -17.928 -1.741 -1.495a14.925 14.925 0 0 0 1.162 -5.478q-5.68 -24.688 2.901 -48.804 0.328 -16.503 1.741 -32.869a1197.228 1197.228 0 0 1 -1.16 -71.712q2.367 -6.854 4.062 -12.948l1.162 -29.88q6.289 -10.542 6.384 -22.41 -2.271 -11.02 0 -21.912 -4.909 -9.534 -9.867 -20.418a1428.571 1428.571 0 0 1 0.58 -58.764q14.49 1.943 27.859 -2.49 26.034 -1.978 50.494 -9.462 12.224 0.026 26.117 0.498 8.074 3.906 15.671 6.474a4.328 4.328 0 0 1 1.741 -0.997q6.884 3.817 13.349 5.977 1.997 -1.432 3.483 0.996l1.16 -0.996q6.39 3.351 13.93 3.984 4.062 -1.993 8.126 0l2.321 -1.993 5.804 1.993a169.51 169.51 0 0 1 16.832 -2.49q5.429 -2.827 11.608 -3.984 18.305 -2.595 36.564 1.494a320.896 320.896 0 0 0 13.35 -1.991q7.312 0.952 14.51 1.993 4.776 0.768 10.447 -1.993l2.322 1.993q2.327 -2.247 5.804 -2.988 6.856 -0.102 13.929 0 2.581 -3.407 5.804 0 3.289 -0.893 6.385 -0.996a54.371 54.371 0 0 1 6.384 2.987q13.017 -1.048 25.537 0 0.58 -0.996 1.161 -1.991 20.146 0.167 41.788 0.996 8.047 -3.886 15.09 1.993 10.144 -1.535 20.894 0a142.857 142.857 0 0 1 7.545 -1.993 4.371 4.371 0 0 1 1.741 0.996 173.774 173.774 0 0 1 17.993 -1.494q5.925 -0.864 11.027 -3.486 3.7 0.375 7.545 0l2.322 0.498q-0.675 2.703 0 4.98 3.11 0.294 4.643 2.49 -0.873 1.817 -1.161 3.486 4.164 1.955 0 2.988 4.209 1.708 2.322 4.979l2.322 3.985a63.966 63.966 0 0 0 0 10.458q0.192 2.799 -2.322 4.482 1.768 0.775 2.322 2.489a17.697 17.697 0 0 0 -1.161 4.98" fill="white"/><path opacity="0.01" fill-rule="evenodd" clip-rule="evenodd" d="M94.022 3.984q2.324 0.994 0 0" fill="white"/><path opacity="0.01" fill-rule="evenodd" clip-rule="evenodd" d="M107.952 3.984q2.322 0.994 0 0" fill="white"/><path opacity="0.01" fill-rule="evenodd" clip-rule="evenodd" d="M66.164 11.952q-1.161 -1.993 0 0" fill="white"/><path opacity="0.01" fill-rule="evenodd" clip-rule="evenodd" d="M309.926 10.956q2.322 0.993 0 0" fill="white"/><path opacity="0.01" fill-rule="evenodd" clip-rule="evenodd" d="M218.225 13.945q-1.161 -1.993 0 0" fill="white"/><path opacity="0.01" fill-rule="evenodd" clip-rule="evenodd" d="M220.547 12.948q2.322 0.995 0 0" fill="white"/><path opacity="0.01" fill-rule="evenodd" clip-rule="evenodd" d="M344.749 12.948q2.322 0.995 0 0" fill="white"/><path opacity="0.01" fill-rule="evenodd" clip-rule="evenodd" d="M359.84 12.948q2.322 0.995 0 0" fill="white"/><path opacity="0.01" fill-rule="evenodd" clip-rule="evenodd" d="M448.058 12.948q2.322 0.995 0 0" fill="white"/><path opacity="0.01" fill-rule="evenodd" clip-rule="evenodd" d="M41.788 14.94q-1.161 -1.993 0 0" fill="white"/><path opacity="0.01" fill-rule="evenodd" clip-rule="evenodd" d="M210.1 13.945q2.322 0.991 0 0" fill="white"/><path opacity="0.01" fill-rule="evenodd" clip-rule="evenodd" d="M247.244 13.945q2.322 0.991 0 0" fill="white"/><path opacity="0.01" fill-rule="evenodd" clip-rule="evenodd" d="M268.139 13.945q2.322 0.991 0 0" fill="white"/><path opacity="0.01" fill-rule="evenodd" clip-rule="evenodd" d="M427.165 13.945q2.322 0.991 0 0" fill="white"/><path opacity="0.01" fill-rule="evenodd" clip-rule="evenodd" d="M15.09 15.936q2.324 0.994 0 0" fill="white"/><path opacity="0.01" fill-rule="evenodd" clip-rule="evenodd" d="M9.286 24.901q-1.161 -1.994 0 0" fill="white"/><path opacity="0.01" fill-rule="evenodd" clip-rule="evenodd" d="M9.286 26.892q-1.161 0.993 0 0" fill="white"/><path opacity="0.01" fill-rule="evenodd" clip-rule="evenodd" d="M8.126 63.744q0.227 1.103 -0.581 1.991 -1.205 -1.399 0.581 -1.991" fill="white"/><path opacity="0.01" fill-rule="evenodd" clip-rule="evenodd" d="M11.608 159.36q-1.161 0.995 0 0" fill="white"/><path opacity="0.01" fill-rule="evenodd" clip-rule="evenodd" d="M11.608 165.336q-1.161 0.995 0 0" fill="white"/><path opacity="0.01" fill-rule="evenodd" clip-rule="evenodd" d="M6.965 222.109q-1.161 0.993 0 0" fill="white"/><path opacity="0.01" fill-rule="evenodd" clip-rule="evenodd" d="M6.965 242.029q-1.161 -1.993 0 0" fill="white"/><path opacity="0.01" fill-rule="evenodd" clip-rule="evenodd" d="M6.965 259.956q-1.161 0.995 0 0" fill="white"/><path opacity="0.01" fill-rule="evenodd" clip-rule="evenodd" d="M6.965 282.865q-1.161 0.995 0 0" fill="white"/><path opacity="0.01" fill-rule="evenodd" clip-rule="evenodd" d="M0 307.764q1.162 0 1.162 0.997z" fill="white"/><path opacity="0.01" fill-rule="evenodd" clip-rule="evenodd" d="M0 317.725h1.162q-0.324 0.998 -1.162 0" fill="white"/><path opacity="0.01" fill-rule="evenodd" clip-rule="evenodd" d="M4.643 356.568q-1.161 0.995 0 0" fill="white"/><path opacity="0.01" fill-rule="evenodd" clip-rule="evenodd" d="M8.126 386.449q-1.161 0.995 0 0" fill="white"/><path opacity="0.01" fill-rule="evenodd" clip-rule="evenodd" d="M9.286 390.433q-1.161 0.995 0 0" fill="white"/><path opacity="0.01" fill-rule="evenodd" clip-rule="evenodd" d="M10.448 397.405q-1.162 0.993 0 0" fill="white"/><path opacity="0.01" fill-rule="evenodd" clip-rule="evenodd" d="M9.286 400.392q2.324 0.995 0 0" fill="white"/><path opacity="0.01" fill-rule="evenodd" clip-rule="evenodd" d="M10.448 408.361q-1.162 -1.993 0 0" fill="white"/><path opacity="0.01" fill-rule="evenodd" clip-rule="evenodd" d="M10.448 423.301q-1.162 0.995 0 0" fill="white"/><path opacity="0.01" fill-rule="evenodd" clip-rule="evenodd" d="M9.286 448.201q-1.161 -1.993 0 0" fill="white"/><path opacity="0.01" fill-rule="evenodd" clip-rule="evenodd" d="M9.286 473.101q-1.161 -1.993 0 0" fill="white"/><path opacity="0.01" fill-rule="evenodd" clip-rule="evenodd" d="M9.286 539.834q-1.161 0.993 0 0" fill="white"/><path opacity="0.01" fill-rule="evenodd" clip-rule="evenodd" d="M9.286 580.67q-1.161 0.994 0 0" fill="white"/><path opacity="0.01" fill-rule="evenodd" clip-rule="evenodd" d="M8.126 602.581q-1.161 -1.991 0 0" fill="white"/><path opacity="0.01" fill-rule="evenodd" clip-rule="evenodd" d="M226.351 637.441q2.322 0.995 0 0" fill="white"/><path opacity="0.01" fill-rule="evenodd" clip-rule="evenodd" d="M230.994 637.441q-1.162 0.995 0 0" fill="white"/><path opacity="0.01" fill-rule="evenodd" clip-rule="evenodd" d="M237.958 637.441q2.322 0.995 0 0" fill="white"/><path opacity="0.01" fill-rule="evenodd" clip-rule="evenodd" d="M206.618 639.434h1.161q-0.323 0.998 -1.161 0" fill="white"/><path opacity="0.01" fill-rule="evenodd" clip-rule="evenodd" d="M210.1 639.434q2.322 0.994 0 0" fill="white"/><path opacity="0.01" fill-rule="evenodd" clip-rule="evenodd" d="M182.241 641.425q2.322 0.995 0 0" fill="white"/><path opacity="0.01" fill-rule="evenodd" clip-rule="evenodd" d="M186.885 641.425q-1.162 0.995 0 0" fill="white"/><path opacity="0.01" fill-rule="evenodd" clip-rule="evenodd" d="M308.765 642.422q2.322 0.994 0 0" fill="white"/><path opacity="0.01" fill-rule="evenodd" clip-rule="evenodd" d="M119.559 643.418h1.162q-0.323 0.998 -1.162 0" fill="white"/><path opacity="0.01" fill-rule="evenodd" clip-rule="evenodd" d="M125.364 643.418h1.161q-0.322 0.998 -1.161 0" fill="white"/><path opacity="0.01" fill-rule="evenodd" clip-rule="evenodd" d="M349.392 643.418q2.322 0.994 0 0" fill="white"/><path opacity="0.01" fill-rule="evenodd" clip-rule="evenodd" d="M4.643 644.414q-1.161 0.993 0 0" fill="white"/><path opacity="0.01" fill-rule="evenodd" clip-rule="evenodd" d="M377.252 644.414q-1.161 0.993 0 0" fill="white"/><path opacity="0.01" fill-rule="evenodd" clip-rule="evenodd" d="M466.631 646.405h1.161q-0.322 1 -1.161 0" fill="white"/><path opacity="0.01" fill-rule="evenodd" clip-rule="evenodd" d="M471.275 646.405q2.322 0.995 0 0" fill="white"/><path opacity="0.01" fill-rule="evenodd" clip-rule="evenodd" d="M474.756 646.405q2.322 0.995 0 0" fill="white"/><path opacity="0.01" fill-rule="evenodd" clip-rule="evenodd" d="M27.857 647.402q2.324 0.994 0 0" fill="white"/><path opacity="0.01" fill-rule="evenodd" clip-rule="evenodd" d="M35.984 647.402q2.322 0.994 0 0" fill="white"/><path opacity="0.01" fill-rule="evenodd" clip-rule="evenodd" d="M42.949 647.402h2.323q-1.162 1.99 -2.323 0" fill="white"/><path opacity="0.01" fill-rule="evenodd" clip-rule="evenodd" d="M53.396 647.402q2.322 0.994 0 0" fill="white"/><path opacity="0.01" fill-rule="evenodd" clip-rule="evenodd" d="M68.486 647.402h1.161q-0.323 0.998 -1.162 0" fill="white"/><path opacity="0.01" fill-rule="evenodd" clip-rule="evenodd" d="M70.807 647.402q2.322 0.994 0 0" fill="white"/><path opacity="0.01" fill-rule="evenodd" clip-rule="evenodd" d="M408.593 651.386q-1.162 -1.993 0 0" fill="white"/><path opacity="0.01" fill-rule="evenodd" clip-rule="evenodd" d="M415.558 650.389q1.162 0 1.161 0.997z" fill="white"/><path opacity="0.01" fill-rule="evenodd" clip-rule="evenodd" d="M421.36 650.389h1.162V651.386z" fill="white"/><path opacity="0.01" fill-rule="evenodd" clip-rule="evenodd" d="M423.682 650.389q1.162 0 1.161 0.997z" fill="white"/></svg>