<svg width="47" height="46" viewBox="0 0 47 46" fill="none" xmlns="http://www.w3.org/2000/svg">
<path d="M2.41781 28.4014C2.41781 27.5939 2.20499 26.792 2.01183 26.0124C1.76421 25.0131 1.64973 24.0428 1.55902 23.0223C1.3999 21.2322 1.50437 19.3931 1.50437 17.5963C1.50437 16.4149 1.43351 15.2077 1.51998 14.0285C1.59902 12.9507 1.93531 11.8972 2.28509 10.8822C2.50571 10.2419 2.78049 9.64633 2.85501 8.96941C2.98232 7.813 3.61014 6.81296 4.30714 5.91681C4.57673 5.5702 4.79001 5.18643 5.09566 4.85894C5.43708 4.49314 5.81797 4.27622 6.21209 3.98064C7.15245 3.27537 8.39556 2.77007 9.55355 2.54412C10.4449 2.3702 11.3267 2.14032 12.2158 1.95468C12.7774 1.83742 13.3161 1.86699 13.8826 1.83367C14.5149 1.79648 15.1361 1.64972 15.7681 1.59945C16.8187 1.51588 17.8846 1.56042 18.9378 1.56042C21.0208 1.56042 23.1879 1.37335 25.2381 1.7556C26.1877 1.93264 27.1636 1.77405 28.119 1.8727C30.4368 2.11205 32.7867 2.5018 35.083 2.89544C35.6935 3.0001 36.313 2.96571 36.9333 2.96571C37.7291 2.96571 39.0784 2.66721 39.7282 3.31703C40.1099 3.69874 40.5675 3.97167 40.954 4.33977C41.2681 4.63896 41.3085 5.04031 41.4536 5.45619C41.6388 5.98693 42.0268 6.569 42.3007 7.06837C42.427 7.29862 42.658 7.44333 42.7847 7.67733C42.8898 7.87129 42.9662 8.02617 43.1361 8.16918C43.6572 8.60807 43.6231 9.66008 43.8036 10.2615C43.9764 10.8377 44.1347 11.3611 44.2642 11.9439C44.4321 12.6995 44.667 13.4619 44.7873 14.2236C44.8936 14.8968 45.1235 15.6039 45.1386 16.2847C45.1532 16.9399 45.2719 17.5862 45.2791 18.2365C45.292 19.3959 45.2472 20.5328 45.1386 21.6873C45.0504 22.6241 44.8575 23.472 44.8575 24.4237C44.8575 25.251 44.7873 26.0726 44.7873 26.8986C44.7873 28.681 44.8448 30.4155 44.436 32.1645C44.1388 33.4356 44.1645 34.8495 43.6943 36.072C43.5689 36.3979 43.4522 36.5547 43.4522 36.9269C43.4522 37.1489 43.4759 37.3895 43.4444 37.61C43.3838 38.0348 43.1728 38.4227 43.097 38.8396C43.0684 38.9971 42.9863 39.1907 42.9136 39.3315C42.8472 39.4597 42.7441 39.5596 42.6715 39.6828C42.5801 39.838 42.6193 40.0232 42.5622 40.1903C42.1207 41.4821 40.5353 41.9081 39.3691 42.267C37.9655 42.6988 36.4454 42.7024 35.0361 43.0867C33.8114 43.4207 32.5506 43.6229 31.3043 43.8596C30.3676 44.0375 29.3384 44.2109 28.3844 44.2109C25.9042 44.2109 23.4194 44.2812 20.9364 44.2812C20.1114 44.2812 19.2865 44.2812 18.4615 44.2812C17.5406 44.2812 16.5933 44.3655 15.6939 44.1407C14.1639 43.7582 12.5787 43.8762 11.0916 43.2897C10.063 42.8841 9.13494 42.297 8.17949 41.7556C7.80852 41.5454 7.42633 41.3556 7.12943 41.0412C6.76992 40.6606 6.6014 40.1378 6.30577 39.7101C5.61264 38.7073 4.85063 37.7317 4.31885 36.6302C3.96101 35.889 3.49713 35.214 3.29221 34.4051C3.09205 33.615 2.98713 32.7425 2.87062 31.9381C2.71092 30.8354 2.48565 29.7713 2.43342 28.6513C2.35295 26.9256 1.59314 25.1178 1.59314 23.3902" stroke="white" stroke-width="2" stroke-linecap="round"/>
<path d="M15.4858 27.7963C15.2912 26.0524 14.5488 24.2588 14.5497 20.2588C14.0504 18.7588 16.0846 14.8695 17.6112 14.45C19.4407 13.9472 21.3507 13.8922 23.1894 13.4273C24.3851 13.1249 25.779 12.5514 27.0227 13.0252C27.6618 13.2687 28.2165 13.6809 28.8535 13.9269C29.8336 14.3054 30.7711 14.8189 31.6953 15.3166C32.112 15.5409 32.4938 16.2157 32.6869 16.6282C32.9811 17.2569 33.1175 18.0102 33.2255 18.6893C33.5004 20.4172 33.8508 22.1774 34.2873 23.8732C34.5872 25.0381 34.8088 26.2625 34.3186 27.4021C33.8582 28.4721 33.3687 29.552 32.3824 30.2322C31.4848 30.8512 30.337 30.8262 29.3298 31.212C28.4665 31.5426 27.5338 31.7814 26.6246 31.9498C26.1599 32.0358 25.6838 31.9657 25.2154 32.0552C24.7387 32.1462 24.2742 32.2377 23.7867 32.262C22.3462 32.3341 21.206 32.042 20.0002 31.2588C19.4049 30.8722 19.5502 31.212 18.0502 30.2322C16.0072 30.2322 15.5306 28.9462 15.4877 27.7963" stroke="white" stroke-width="2" stroke-linecap="round"/>
</svg>
